<svg xmlns="http://www.w3.org/2000/svg" aria-hidden="true" data-prefix="far" data-icon="trash-alt" role="img" width="448" height="512"><rect id="backgroundrect" width="100%" height="100%" x="0" y="0" fill="none" stroke="none"/><g class="currentLayer" style=""><title>Layer 1</title><path fill="#ffffff" d="M192.72463768720627,189.44927537441254 v216 c0,6.627 -5.373,12 -12,12 h-24 c-6.627,0 -12,-5.373 -12,-12 V189.44927537441254 c0,-6.627 5.373,-12 12,-12 h24 c6.627,0 12,5.373 12,12 zm100,-12 h-24 c-6.627,0 -12,5.373 -12,12 v216 c0,6.627 5.373,12 12,12 h24 c6.627,0 12,-5.373 12,-12 V189.44927537441254 c0,-6.627 -5.373,-12 -12,-12 zm132,-96 c13.255,0 24,10.745000000000001 24,24 v12 c0,6.627 -5.373,12 -12,12 h-20 v336 c0,26.51 -21.49,48 -48,48 H80.72463768720627 c-26.51,0 -48,-21.49 -48,-48 V129.44927537441254 H12.724637687206268 c-6.627,0 -12,-5.373 -12,-12 v-12 c0,-13.255 10.745000000000001,-24 24,-24 h74.411 l34.018,-56.696 A48,48 0 0 1 174.31363768720627,1.4492753744125366 h100.823 a48,48 0 0 1 41.16,23.304 L350.31363768720627,81.44927537441254 H424.72463768720627 zm-269.611,0 h139.223 L276.8846376872063,52.36227537441253 A6,6 0 0 0 271.73963768720625,49.44927537441254 h-94.028 a6,6 0 0 0 -5.145,2.9130000000000003 L155.11363768720628,81.44927537441254 zM368.72463768720627,129.44927537441254 H80.72463768720627 v330 a6,6 0 0 0 6,6 h276 a6,6 0 0 0 6,-6 V129.44927537441254 z" id="svg_1" class="selected" fill-opacity="1"/></g></svg>